<?xml version="1.0" encoding="utf-8"?>
<!-- Generator: Adobe Illustrator 28.0.0, SVG Export Plug-In . SVG Version: 6.00 Build 0)  -->
<svg version="1.1" xmlns="http://www.w3.org/2000/svg" xmlns:xlink="http://www.w3.org/1999/xlink" x="0px" y="0px"
	 viewBox="0 0 31 23" style="enable-background:new 0 0 31 23;" xml:space="preserve">
<style type="text/css">
	.st0{fill:none;stroke:#3C2A1C;stroke-miterlimit:10;}
</style>
<g id="Layer_2">
</g>
<g id="Layer_1">
	<image style="overflow:visible;" width="494" height="12" xlink:href="51A1A487.png"  transform="matrix(1 0 0 1 -494 11)">
	</image>
	<image style="overflow:visible;" width="8" height="509" xlink:href="51A1A485.png"  transform="matrix(1 0 0 1 23 -509)">
	</image>
	<g>
		<g>
			<defs>
				<path id="SVGID_00000046323629171322182470000010363947910967242115_" d="M0,23l0-11.7h1.8c2.3,0,4.2,1.2,5.3,3h9.8
					c1.1-2.6,3.4-4.7,6.2-5.5V0l8,0v23H0z"/>
			</defs>
			<clipPath id="SVGID_00000073692878994125590340000003962026004849547432_">
				<use xlink:href="#SVGID_00000046323629171322182470000010363947910967242115_"  style="overflow:visible;"/>
			</clipPath>
			
				<image style="overflow:visible;clip-path:url(#SVGID_00000073692878994125590340000003962026004849547432_);" width="31" height="23" xlink:href="51A1A48B.png" >
			</image>
		</g>
		<path class="st0" d="M0,17.8h16.1c0.1-1.2,0.3-2.4,0.8-3.5c1.1-2.6,3.4-4.7,6.2-5.5c1-0.3,2-0.5,3-0.5V5.4l-3-3.1"/>
		<path class="st0" d="M23.1,0v10.3c0,2.2-1.8,4-4,4H7.1c-1.1-1.8-3.1-3-5.3-3H0"/>
	</g>
	<line class="st0" x1="-494" y1="11.3" x2="0" y2="11.3"/>
	<line class="st0" x1="-494" y1="17.8" x2="0" y2="17.8"/>
	<line class="st0" x1="23" y1="-509" x2="23" y2="0"/>
</g>
</svg>
