<?xml version="1.0" encoding="utf-8"?>
<!-- Generator: Adobe Illustrator 28.0.0, SVG Export Plug-In . SVG Version: 6.00 Build 0)  -->
<svg version="1.1" xmlns="http://www.w3.org/2000/svg" xmlns:xlink="http://www.w3.org/1999/xlink" x="0px" y="0px"
	 viewBox="0 0 494 23" style="enable-background:new 0 0 494 23;" xml:space="preserve">
<style type="text/css">
	.st0{fill:none;stroke:#3C2A1C;stroke-miterlimit:10;}
</style>
<g id="Layer_2">
</g>
<g id="Layer_1">
	<image style="overflow:visible;" width="494" height="12" xlink:href="A3B5404B.png" >
	</image>
	<g>
		<path class="st0" d="M-23.1,23V12.7c0-2.2,1.8-4,4-4h11.9c1.1,1.8,3.1,3,5.3,3H0"/>
	</g>
	<g>
		<g>
			<defs>
				<path id="SVGID_00000171682612924517119360000008590067149955750064_" d="M494,0v11.7h1.8c2.3,0,4.2-1.2,5.3-3h9.8
					c1.1,2.6,3.4,4.7,6.2,5.5V23h8V0L494,0z"/>
			</defs>
			<clipPath id="SVGID_00000062175801423770031240000008060099927910036923_">
				<use xlink:href="#SVGID_00000171682612924517119360000008590067149955750064_"  style="overflow:visible;"/>
			</clipPath>
		</g>
		<path class="st0" d="M517.1,23V12.7c0-2.2-1.8-4-4-4h-11.9c-1.1,1.8-3.1,3-5.3,3H494"/>
	</g>
	<line class="st0" x1="0" y1="5.2" x2="494" y2="5.2"/>
	<line class="st0" x1="494" y1="11.7" x2="0" y2="11.7"/>
</g>
</svg>
