<?xml version="1.0" encoding="utf-8"?>
<!-- Generator: Adobe Illustrator 28.0.0, SVG Export Plug-In . SVG Version: 6.00 Build 0)  -->
<svg version="1.1" xmlns="http://www.w3.org/2000/svg" xmlns:xlink="http://www.w3.org/1999/xlink" x="0px" y="0px"
	 viewBox="0 0 31 509" style="enable-background:new 0 0 31 509;" xml:space="preserve">
<style type="text/css">
	.st0{fill:none;stroke:#3C2A1C;stroke-miterlimit:10;}
</style>
<g id="Layer_2">
</g>
<g id="Layer_1">
	<image style="overflow:visible;" width="8" height="509" xlink:href="3F66E9BF.png" >
	</image>
	<g>
		<path class="st0" d="M7.9,0v-10.3c0-2.2,1.8-4,4-4h11.9c1.1,1.8,3.1,3,5.3,3H31"/>
	</g>
	<g>
		<g>
			<defs>
				<path id="SVGID_00000075847426303324404310000009070470134662885794_" d="M31,532v-11.7h-1.8c-2.3,0-4.2,1.2-5.3,3h-9.8
					c-1.1-2.6-3.4-4.7-6.2-5.5V509H0v23H31z"/>
			</defs>
			<clipPath id="SVGID_00000034780009823463330680000015305109842294308775_">
				<use xlink:href="#SVGID_00000075847426303324404310000009070470134662885794_"  style="overflow:visible;"/>
			</clipPath>
		</g>
		<path class="st0" d="M7.9,509v10.3c0,2.2,1.8,4,4,4h11.9c1.1-1.8,3.1-3,5.3-3H31"/>
	</g>
	<line class="st0" x1="8" y1="0" x2="8" y2="509"/>
</g>
</svg>
