<?xml version="1.0" encoding="utf-8"?>
<!-- Generator: Adobe Illustrator 28.0.0, SVG Export Plug-In . SVG Version: 6.00 Build 0)  -->
<svg version="1.1" xmlns="http://www.w3.org/2000/svg" xmlns:xlink="http://www.w3.org/1999/xlink" x="0px" y="0px"
	 viewBox="0 0 31 23" style="enable-background:new 0 0 31 23;" xml:space="preserve">
<style type="text/css">
	.st0{fill:none;stroke:#3C2A1C;stroke-miterlimit:10;}
</style>
<g id="Layer_2">
</g>
<g id="Layer_1">
	<image style="overflow:visible;" width="494" height="12" xlink:href="EDCF84E0.png"  transform="matrix(1 0 0 1 31 11)">
	</image>
	<image style="overflow:visible;" width="8" height="509" xlink:href="EDCF84E1.png"  transform="matrix(1 0 0 1 0 -509)">
	</image>
	<g>
		<g>
			<defs>
				<path id="SVGID_00000075847426303324404310000009070470134662885794_" d="M31,23V11.3h-1.8c-2.3,0-4.2,1.2-5.3,3h-9.8
					C13,11.7,10.7,9.6,8,8.8V0H0v23H31z"/>
			</defs>
			<clipPath id="SVGID_00000128453983238249051030000005214559243086060463_">
				<use xlink:href="#SVGID_00000075847426303324404310000009070470134662885794_"  style="overflow:visible;"/>
			</clipPath>
			
				<image style="overflow:visible;clip-path:url(#SVGID_00000128453983238249051030000005214559243086060463_);" width="31" height="23" xlink:href="EDCF84E7.png" >
			</image>
		</g>
		<path class="st0" d="M31,17.8H14.9c-0.1-1.2-0.3-2.4-0.8-3.5c-1.1-2.6-3.4-4.7-6.2-5.5c-1-0.3-2-0.5-3-0.5V5.4l3-3.1"/>
		<path class="st0" d="M7.9,0v10.3c0,2.2,1.8,4,4,4h11.9c1.1-1.8,3.1-3,5.3-3H31"/>
	</g>
	<line class="st0" x1="8" y1="-509" x2="8" y2="0"/>
	<line class="st0" x1="31" y1="11.3" x2="525" y2="11.3"/>
	<line class="st0" x1="31" y1="17.8" x2="525" y2="17.8"/>
</g>
</svg>
