<?xml version="1.0" encoding="utf-8"?>
<!-- Generator: Adobe Illustrator 28.0.0, SVG Export Plug-In . SVG Version: 6.00 Build 0)  -->
<svg version="1.1" xmlns="http://www.w3.org/2000/svg" xmlns:xlink="http://www.w3.org/1999/xlink" x="0px" y="0px"
	 viewBox="0 0 31 23" style="enable-background:new 0 0 31 23;" xml:space="preserve">
<style type="text/css">
	.st0{fill:none;stroke:#3C2A1C;stroke-miterlimit:10;}
</style>
<g id="Layer_2">
</g>
<g id="Layer_1">
	<g>
		<g>
			<defs>
				<path id="SVGID_1_" d="M31,0v11.7h-1.8c-2.3,0-4.2-1.2-5.3-3h-9.8c-1.1,2.6-3.4,4.7-6.2,5.5V23H0V0H31z"/>
			</defs>
			<clipPath id="SVGID_00000085964421819602971280000009196616242967998369_">
				<use xlink:href="#SVGID_1_"  style="overflow:visible;"/>
			</clipPath>
			
				<image style="overflow:visible;clip-path:url(#SVGID_00000085964421819602971280000009196616242967998369_);" width="31" height="23" xlink:href="2D28168.png" >
			</image>
		</g>
		<path class="st0" d="M31,5.2H14.9c-0.1,1.2-0.3,2.4-0.8,3.5c-1.1,2.6-3.4,4.7-6.2,5.5c-1,0.3-2,0.5-3,0.5v2.9l3,3.1"/>
		<path class="st0" d="M7.9,23V12.7c0-2.2,1.8-4,4-4h11.9c1.1,1.8,3.1,3,5.3,3H31"/>
	</g>
	<line class="st0" x1="31" y1="5.2" x2="525" y2="5.2"/>
</g>
</svg>
