<?xml version="1.0" encoding="utf-8"?>
<!-- Generator: Adobe Illustrator 28.0.0, SVG Export Plug-In . SVG Version: 6.00 Build 0)  -->
<svg version="1.1" xmlns="http://www.w3.org/2000/svg" xmlns:xlink="http://www.w3.org/1999/xlink" x="0px" y="0px"
	 viewBox="0 0 494 23" style="enable-background:new 0 0 494 23;" xml:space="preserve">
<style type="text/css">
	.st0{fill:none;stroke:#3C2A1C;stroke-miterlimit:10;}
</style>
<g id="Layer_2">
</g>
<g id="Layer_1">
	<image style="overflow:visible;" width="494" height="12" xlink:href="CEEEBFC3.png"  transform="matrix(1 0 0 1 0 11)">
	</image>
	<g>
		<path class="st0" d="M-23.1,0v10.3c0,2.2,1.8,4,4,4h11.9c1.1-1.8,3.1-3,5.3-3H0"/>
	</g>
	<g>
		<g>
			<defs>
				<path id="SVGID_00000046323629171322182470000010363947910967242115_" d="M494,23V11.3h1.8c2.3,0,4.2,1.2,5.3,3h9.8
					c1.1-2.6,3.4-4.7,6.2-5.5V0l8,0v23H494z"/>
			</defs>
			<clipPath id="SVGID_00000087406796395347472660000012111398622532943794_">
				<use xlink:href="#SVGID_00000046323629171322182470000010363947910967242115_"  style="overflow:visible;"/>
			</clipPath>
		</g>
		<path class="st0" d="M517.1,0v10.3c0,2.2-1.8,4-4,4h-11.9c-1.1-1.8-3.1-3-5.3-3H494"/>
	</g>
	<line class="st0" x1="0" y1="11.3" x2="494" y2="11.3"/>
	<line class="st0" x1="0" y1="17.8" x2="494" y2="17.8"/>
</g>
</svg>
