<?xml version="1.0" encoding="utf-8"?>
<!-- Generator: Adobe Illustrator 28.0.0, SVG Export Plug-In . SVG Version: 6.00 Build 0)  -->
<svg version="1.1" xmlns="http://www.w3.org/2000/svg" xmlns:xlink="http://www.w3.org/1999/xlink" x="0px" y="0px"
	 viewBox="0 0 31 23" style="enable-background:new 0 0 31 23;" xml:space="preserve">
<style type="text/css">
	.st0{fill:none;stroke:#3C2A1C;stroke-miterlimit:10;}
</style>
<g id="Layer_2">
</g>
<g id="Layer_1">
	<image style="overflow:visible;" width="494" height="12" xlink:href="DCFE38FF.png"  transform="matrix(1 0 0 1 -494 0)">
	</image>
	<image style="overflow:visible;" width="8" height="509" xlink:href="DCFE38FD.png"  transform="matrix(1 0 0 1 23 23)">
	</image>
	<g>
		<g>
			<defs>
				<path id="SVGID_00000171682612924517119360000008590067149955750064_" d="M0,0l0,11.7h1.8c2.3,0,4.2-1.2,5.3-3h9.8
					c1.1,2.6,3.4,4.7,6.2,5.5V23h8V0L0,0z"/>
			</defs>
			<clipPath id="SVGID_00000067926931924010599730000004116331361274789778_">
				<use xlink:href="#SVGID_00000171682612924517119360000008590067149955750064_"  style="overflow:visible;"/>
			</clipPath>
			
				<image style="overflow:visible;clip-path:url(#SVGID_00000067926931924010599730000004116331361274789778_);" width="31" height="23" xlink:href="DCFE3903.png" >
			</image>
		</g>
		<path class="st0" d="M0,5.2h16.1c0.1,1.2,0.3,2.4,0.8,3.5c1.1,2.6,3.4,4.7,6.2,5.5c1,0.3,2,0.5,3,0.5v2.9l-3,3.1"/>
		<path class="st0" d="M23.1,23V12.7c0-2.2-1.8-4-4-4H7.1c-1.1,1.8-3.1,3-5.3,3H0"/>
	</g>
	<line class="st0" x1="-494" y1="5.2" x2="0" y2="5.2"/>
	<line class="st0" x1="0" y1="11.7" x2="-494" y2="11.7"/>
	<line class="st0" x1="23" y1="23" x2="23" y2="532"/>
</g>
</svg>
